<?xml version="1.0" standalone="no"?>
<!DOCTYPE svg PUBLIC "-//W3C//DTD SVG 20010904//EN"
 "http://www.w3.org/TR/2001/REC-SVG-20010904/DTD/svg10.dtd">
<svg version="1.0" xmlns="http://www.w3.org/2000/svg"
 width="48.000000pt" height="48.000000pt" viewBox="0 0 48.000000 48.000000"
 preserveAspectRatio="xMidYMid meet">

<g transform="translate(0.000000,48.000000) scale(0.100000,-0.100000)"
fill="#000000" stroke="none">
<path d="M80 215 l0 -135 160 0 160 0 0 135 0 135 -160 0 -160 0 0 -135z m187
63 c-2 -7 -12 -39 -21 -70 -9 -32 -21 -58 -27 -58 -6 0 -9 6 -6 13 2 6 12 38
21 70 9 31 21 57 27 57 6 0 9 -6 6 -12z m-93 -53 c-18 -13 -18 -14 -1 -20 9
-4 17 -13 17 -21 0 -10 -7 -9 -30 4 -37 21 -38 37 -2 56 31 17 44 2 16 -19z
m176 -10 c0 -6 -13 -19 -30 -28 -25 -15 -30 -16 -30 -4 0 8 8 18 18 22 16 6
16 7 0 19 -31 23 -21 39 12 19 17 -9 30 -22 30 -28z"/>
</g>
</svg>
